<svg xmlns="http://www.w3.org/2000/svg" width="41.9011" height="22.42377" viewBox="0 0 41.9011 22.42377" creator="Katerina Limpitsouni"><path d="M2.36927,1.29454c3.74727,4.03459,7.49455,8.06917,11.24182,12.10376l.33095-1.25354C8.78636,14.16928,4.12408,17.20882,.21937,21.14106c-.68095,.68575,.37922,1.74691,1.06066,1.06066,3.71391-3.74009,8.15211-6.68302,13.06078-8.61054,.52479-.20607,.74256-.81037,.33095-1.25354C10.92448,8.30305,7.17721,4.26847,3.42993,.23388c-.65836-.70884-1.71724,.35374-1.06066,1.06066h0Z" fill="#000000" origin="undraw"/><path d="M14.14142,19.98829h27.03519c.96518,0,.96678-1.5,0-1.5H14.14142c-.96518,0-.96678,1.5,0,1.5h0Z" fill="#000000"/></svg>