<svg xmlns="http://www.w3.org/2000/svg" width="44.28494" height="39.17435" viewBox="0 0 44.28494 39.17435" creator="Katerina Limpitsouni"><path d="M11.45669,8.60326C7.70942,12.63784,3.96215,16.67243,.21487,20.70701c-.41161,.44317-.19384,1.04747,.33095,1.25354,4.90866,1.92752,9.34686,4.87045,13.06078,8.61054,.68115,.68595,1.7419-.37462,1.06066-1.06066-3.9047-3.93223-8.567-6.97178-13.72268-8.9963l.33095,1.25354c3.74727-4.03459,7.49455-8.06917,11.24182-12.10376,.6563-.70662-.40201-1.76981-1.06066-1.06066h0Z" fill="#01010C" origin="undraw"/><path d="M31.76759,9.66392c3.74727,4.03459,7.49455,8.06917,11.24182,12.10376l.33095-1.25354c-5.15569,2.02452-9.81796,5.06406-13.72268,8.9963-.68095,.68575,.37922,1.74691,1.06066,1.06066,3.71391-3.74009,8.15211-6.68302,13.06078-8.61054,.52479-.20607,.74256-.81037,.33095-1.25354-3.74727-4.03459-7.49455-8.06917-11.24182-12.10376-.65836-.70884-1.71724,.35374-1.06066,1.06066h0Z" fill="#01010C"/><path d="M16.26421,38.67073C21.17972,26.08128,26.09523,13.49183,31.01074,.90239c.35126-.89962-1.09862-1.28953-1.44642-.39876-4.91551,12.58945-9.83102,25.17889-14.74653,37.76834-.35126,.89962,1.09862,1.28953,1.44642,.39876h0Z" fill="#01010C"/></svg>