<svg xmlns="http://www.w3.org/2000/svg" width="37.52542" height="45.68901" viewBox="0 0 37.52542 45.68901" creator="Katerina Limpitsouni"><g><path d="M16.40958,10.35889c-.05263,.06456-.11052,.12972-.15268,.20229-.04415,.076-.07709,.16234-.10551,.24473-.00789,.02289-.01309,.04625-.01725,.07007-.01508,.08626-.03182,.17757-.03199,.26622-.00016,.08723,.0176,.17559,.03074,.26107,.00401,.02609,.00899,.05179,.0167,.07706,.02479,.08121,.06161,.16056,.09755,.237,.01198,.02548,.0257,.0495,.04175,.07265,.10998,.15872,.19973,.24864,.35828,.35967,.09103,.06374,.20105,.10987,.30888,.13413,.08703,.01958,.17924,.03239,.26839,.03562,.08959,.00325,.18172-.01637,.269-.0303,.11172-.01784,.21873-.06955,.31887-.11857,.02295-.01124,.04501-.02432,.06586-.03912,.07192-.05104,.14723-.10376,.21016-.16642,.07815-.07782,.15259-.16967,.20091-.26995,.08497-.17634,.12555-.314,.13527-.51181,.00441-.08964-.01556-.18367-.03013-.27045-.00539-.03213-.01354-.06261-.02526-.09305-.03121-.08107-.0621-.16763-.10738-.24296-.0461-.07671-.10537-.14753-.16308-.21545-.01848-.02175-.03886-.04186-.06076-.06015-.06979-.0583-.14237-.12042-.22189-.16637-.10185-.05886-.21574-.11044-.33233-.13118-.0873-.01553-.18115-.03367-.27113-.03217-.01533,.00025-.03049,.00173-.04571,.00348-.07659,.00882-.15555,.01638-.23117,.03217-.0883,.01844-.19227,.06967-.26434,.10286-.02918,.01344-.05716,.02846-.08357,.04686-.07435,.05179-.15069,.10709-.21635,.17043-.06691,.06455-.12451,.14756-.17701,.21996-.07304,.10073-.12107,.22343-.15839,.34032-.0294,.0921-.03603,.19307-.04663,.28778-.00387,.03462-.00495,.06874-.00235,.10352-.0039,.10326,.01764,.19958,.06459,.28896,.03025,.09298,.08194,.17344,.15508,.24137,.06793,.07314,.14839,.12483,.24137,.15508,.08938,.04696,.1857,.06849,.28896,.06459,.19397-.00869,.39514-.0724,.53033-.21967,.12885-.14036,.23437-.3332,.21967-.53033-.00259-.03475-.00174-.06892,.00235-.10352l-.02679,.19938c.00689-.04748,.01961-.09275,.03796-.13706l-.07561,.17916c.01943-.04394,.04346-.08458,.07251-.12285l-.11727,.15179c.02977-.03737,.06303-.07045,.10082-.09971l-.15179,.11727c.03117-.02291,.06393-.04224,.09919-.05813l-.17916,.07561c.03579-.01495,.07228-.02554,.11056-.03179l-.19938,.02679c.03939-.0052,.07805-.0052,.11743,0l-.19938-.02679c.03473,.0057,.06788,.01495,.10066,.02774l-.17916-.07561c.04076,.01725,.07825,.03903,.11366,.06558l-.15179-.11727c.03468,.02747,.06533,.05818,.09262,.09301l-.11727-.15179c.02343,.03163,.04296,.06496,.05872,.10103l-.07561-.17916c.01293,.03221,.02216,.06477,.02767,.09904l-.02679-.19938c.00441,.03485,.00456,.06891,.0003,.10378l.02679-.19938c-.00493,.03117-.01324,.06073-.02513,.08995l.07561-.17916c-.01426,.03214-.03201,.06165-.05336,.08957l.11727-.15179c-.02227,.02751-.04699,.05201-.0745,.07425l.15179-.11727c-.03459,.02656-.07149,.04817-.11155,.06541l.17916-.07561c-.03659,.01467-.07387,.02497-.11287,.03078l.19938-.02679c-.03491,.00423-.06937,.0046-.10431,.0007l.19938,.02679c-.03115-.00446-.06082-.01212-.09016-.02347l.17916,.07561c-.03142-.01339-.06014-.03027-.08719-.0511l.15179,.11727c-.02598-.02128-.04881-.04502-.06933-.07158l.11727,.15179c-.02219-.03035-.04029-.06252-.05507-.09709l.07561,.17916c-.01545-.03869-.02598-.07822-.03189-.11946l.02679,.19938c-.00491-.04119-.00492-.08188,.00039-.12303l-.02679,.19938c.00517-.03319,.01363-.06507,.02593-.09633l-.07561,.17916c.0133-.03108,.02983-.05967,.05033-.08654l-.11727,.15179,.00715-.00877c.07314-.06793,.12483-.14839,.15508-.24137,.04696-.08938,.06849-.1857,.06459-.28896,.0039-.10326-.01764-.19958-.06459-.28896-.03025-.09298-.08194-.17344-.15508-.24137-.14293-.13121-.33058-.22862-.53033-.21967l-.19938,.02679c-.12705,.03563-.23737,.09993-.33095,.19288h0Z" fill="#01010C" origin="undraw"/><path d="M21.67898,10.35889c-.05263,.06456-.11052,.12972-.15268,.20229-.04415,.076-.07709,.16234-.10551,.24473-.00789,.02289-.01309,.04625-.01725,.07007-.01508,.08626-.03182,.17757-.03199,.26622-.00016,.08723,.0176,.17559,.03074,.26107,.00401,.02609,.00899,.05179,.0167,.07706,.02479,.08121,.06161,.16056,.09755,.237,.01198,.02548,.0257,.0495,.04175,.07265,.10998,.15872,.19973,.24864,.35828,.35967,.09103,.06374,.20105,.10987,.30888,.13413,.08703,.01958,.17924,.03239,.26839,.03562,.08959,.00325,.18172-.01637,.269-.0303,.11172-.01784,.21873-.06955,.31887-.11857,.02295-.01124,.04501-.02432,.06586-.03912,.07192-.05104,.14723-.10376,.21016-.16642,.07815-.07782,.15259-.16967,.20091-.26995,.08497-.17634,.12555-.314,.13527-.51181,.00441-.08964-.01556-.18367-.03013-.27045-.00539-.03213-.01354-.06261-.02526-.09305-.03121-.08107-.0621-.16763-.10738-.24296-.0461-.07671-.10537-.14753-.16308-.21545-.01848-.02175-.03886-.04186-.06076-.06015-.06979-.0583-.14237-.12042-.22189-.16637-.10185-.05886-.21574-.11044-.33233-.13118-.0873-.01553-.18115-.03367-.27113-.03217-.01533,.00025-.03049,.00173-.04571,.00348-.07659,.00882-.15555,.01638-.23117,.03217-.0883,.01844-.19227,.06967-.26434,.10286-.02918,.01344-.05716,.02846-.08357,.04686-.07435,.05179-.15069,.10709-.21635,.17043-.06691,.06455-.12451,.14756-.17701,.21996-.07304,.10073-.12107,.22343-.15839,.34032-.0294,.0921-.03603,.19307-.04663,.28778-.00387,.03462-.00495,.06874-.00235,.10352-.0039,.10326,.01764,.19958,.06459,.28896,.03025,.09298,.08194,.17344,.15508,.24137,.06793,.07314,.14839,.12483,.24137,.15508,.08938,.04696,.1857,.06849,.28896,.06459,.19397-.00869,.39514-.0724,.53033-.21967,.12885-.14036,.23437-.3332,.21967-.53033-.00259-.03475-.00174-.06892,.00235-.10352l-.02679,.19938c.00689-.04748,.01961-.09275,.03796-.13706l-.07561,.17916c.01943-.04394,.04346-.08458,.07251-.12285l-.11727,.15179c.02977-.03737,.06303-.07045,.10082-.09971l-.15179,.11727c.03117-.02291,.06393-.04224,.09919-.05813l-.17916,.07561c.03579-.01495,.07228-.02554,.11056-.03179l-.19938,.02679c.03939-.0052,.07805-.0052,.11743,0l-.19938-.02679c.03473,.0057,.06788,.01495,.10066,.02774l-.17916-.07561c.04076,.01725,.07825,.03903,.11366,.06558l-.15179-.11727c.03468,.02747,.06533,.05818,.09262,.09301l-.11727-.15179c.02343,.03163,.04296,.06496,.05872,.10103l-.07561-.17916c.01293,.03221,.02216,.06477,.02767,.09904l-.02679-.19938c.00441,.03485,.00456,.06891,.0003,.10378l.02679-.19938c-.00493,.03117-.01324,.06073-.02513,.08995l.07561-.17916c-.01426,.03214-.03201,.06165-.05336,.08957l.11727-.15179c-.02227,.02751-.04699,.05201-.0745,.07425l.15179-.11727c-.03459,.02656-.07149,.04817-.11155,.06541l.17916-.07561c-.03659,.01467-.07387,.02497-.11287,.03078l.19938-.02679c-.03491,.00423-.06937,.0046-.10431,.0007l.19938,.02679c-.03115-.00446-.06082-.01212-.09016-.02347l.17916,.07561c-.03142-.01339-.06014-.03027-.08719-.0511l.15179,.11727c-.02598-.02128-.04881-.04502-.06933-.07158l.11727,.15179c-.02219-.03035-.04029-.06252-.05507-.09709l.07561,.17916c-.01545-.03869-.02598-.07822-.03189-.11946l.02679,.19938c-.00491-.04119-.00492-.08188,.00039-.12303l-.02679,.19938c.00517-.03319,.01363-.06507,.02593-.09633l-.07561,.17916c.0133-.03108,.02983-.05967,.05033-.08654l-.11727,.15179,.00715-.00877c.07314-.06793,.12483-.14839,.15508-.24137,.04696-.08938,.06849-.1857,.06459-.28896,.0039-.10326-.01764-.19958-.06459-.28896-.03025-.09298-.08194-.17344-.15508-.24137-.14293-.13121-.33058-.22862-.53033-.21967l-.19938,.02679c-.12705,.03563-.23737,.09993-.33095,.19288h0Z" fill="#01010C"/></g><path d="M1.45793,45.14621c1.03481-6.33217,2.41234-12.60457,4.1499-18.78141,1.72358-6.1271,3.66684-12.33432,6.25793-18.15711,.97437-2.18964,2.2329-4.54543,4.33832-5.83806,2.49343-1.53085,5.48801-.8356,7.68923,.88804,2.34636,1.83729,3.6243,4.67231,4.60285,7.4097,1.07302,3.00165,1.99225,6.06607,2.85992,9.1325,2.02506,7.15672,3.58988,14.43638,4.71278,21.78832,.14528,.95118,1.59089,.54712,1.44642-.39876-1.08669-7.11489-2.58733-14.16153-4.5181-21.09558-.95543-3.43124-1.96641-6.87098-3.19563-10.21555-.97203-2.64478-2.21835-5.32015-4.33394-7.25178C23.52773,.85535,20.86331-.3128,18.20414,.07416c-2.40102,.3494-4.28394,1.91032-5.66621,3.8285-1.68209,2.33424-2.66247,5.13666-3.67447,7.80321-1.22136,3.21821-2.34523,6.47332-3.36865,9.75985C3.1216,29.08685,1.29877,36.87047,.01151,44.74745c-.15432,.94432,1.29087,1.35058,1.44642,.39876h0Z" fill="#01010C"/></svg>